<mxfile host="app.diagrams.net" agent="Mozilla/5.0 (X11; Ubuntu; Linux x86_64; rv:133.0) Gecko/20100101 Firefox/133.0" version="26.0.9">
  <diagram name="Page-1" id="Y4EbUQg9q2NRosDeaMzo">
    <mxGraphModel dx="1368" dy="790" grid="1" gridSize="10" guides="1" tooltips="1" connect="1" arrows="1" fold="1" page="1" pageScale="1" pageWidth="850" pageHeight="1100" math="0" shadow="0">
      <root>
        <mxCell id="0" />
        <mxCell id="1" parent="0" />
        <mxCell id="8Tat6goZHTP_cjcbLfmh-2" value="&lt;font style=&quot;font-size: 19px;&quot;&gt;TDMA QDisc&lt;/font&gt;" style="rounded=0;whiteSpace=wrap;html=1;fillColor=#30FF67;strokeColor=light-dark(#30FF67,#D7817E);gradientColor=none;fillStyle=solid;" vertex="1" parent="1">
          <mxGeometry x="160" y="240" width="120" height="60" as="geometry" />
        </mxCell>
        <mxCell id="8Tat6goZHTP_cjcbLfmh-5" value="" style="shape=flexArrow;endArrow=classic;html=1;rounded=0;exitX=0.5;exitY=0;exitDx=0;exitDy=0;fillColor=#3333FF;" edge="1" parent="1" source="8Tat6goZHTP_cjcbLfmh-2">
          <mxGeometry width="50" height="50" relative="1" as="geometry">
            <mxPoint x="220" y="200" as="sourcePoint" />
            <mxPoint x="220" y="140" as="targetPoint" />
          </mxGeometry>
        </mxCell>
        <mxCell id="8Tat6goZHTP_cjcbLfmh-6" value="&lt;font style=&quot;font-size: 16px;&quot;&gt;Outgoing Packets&lt;/font&gt;" style="edgeLabel;html=1;align=center;verticalAlign=middle;resizable=0;points=[];" vertex="1" connectable="0" parent="8Tat6goZHTP_cjcbLfmh-5">
          <mxGeometry x="0.06" y="-2" relative="1" as="geometry">
            <mxPoint x="-112" y="3" as="offset" />
          </mxGeometry>
        </mxCell>
        <mxCell id="8Tat6goZHTP_cjcbLfmh-7" value="&lt;font style=&quot;font-size: 19px;&quot;&gt;Network Stack&lt;/font&gt;" style="rounded=0;whiteSpace=wrap;html=1;fillColor=#30FF67;strokeColor=light-dark(#30FF67,#D7817E);gradientColor=none;fillStyle=solid;" vertex="1" parent="1">
          <mxGeometry x="365" y="442" width="120" height="60" as="geometry" />
        </mxCell>
        <mxCell id="8Tat6goZHTP_cjcbLfmh-8" value="" style="shape=flexArrow;endArrow=classic;html=1;rounded=0;exitX=0;exitY=0.5;exitDx=0;exitDy=0;fillColor=#3333FF;entryX=0.5;entryY=1;entryDx=0;entryDy=0;" edge="1" parent="1" source="8Tat6goZHTP_cjcbLfmh-7" target="8Tat6goZHTP_cjcbLfmh-2">
          <mxGeometry width="50" height="50" relative="1" as="geometry">
            <mxPoint x="230" y="440" as="sourcePoint" />
            <mxPoint x="230" y="340" as="targetPoint" />
            <Array as="points">
              <mxPoint x="220" y="472" />
            </Array>
          </mxGeometry>
        </mxCell>
        <mxCell id="8Tat6goZHTP_cjcbLfmh-10" value="&lt;font style=&quot;font-size: 19px;&quot;&gt;User-Space Applications&lt;/font&gt;" style="rounded=0;whiteSpace=wrap;html=1;fillColor=#FF8000;strokeColor=light-dark(#30FF67,#D7817E);gradientColor=none;fillStyle=solid;" vertex="1" parent="1">
          <mxGeometry x="365" y="592" width="120" height="60" as="geometry" />
        </mxCell>
        <mxCell id="8Tat6goZHTP_cjcbLfmh-11" value="" style="shape=flexArrow;endArrow=classic;html=1;rounded=0;exitX=0.25;exitY=1;exitDx=0;exitDy=0;fillColor=#FF0000;entryX=0.25;entryY=0;entryDx=0;entryDy=0;" edge="1" parent="1">
          <mxGeometry width="50" height="50" relative="1" as="geometry">
            <mxPoint x="460" y="502" as="sourcePoint" />
            <mxPoint x="460" y="592" as="targetPoint" />
            <Array as="points" />
          </mxGeometry>
        </mxCell>
        <mxCell id="8Tat6goZHTP_cjcbLfmh-12" value="" style="shape=flexArrow;endArrow=classic;html=1;rounded=0;exitX=0.75;exitY=0;exitDx=0;exitDy=0;fillColor=#3333FF;entryX=0.75;entryY=1;entryDx=0;entryDy=0;" edge="1" parent="1">
          <mxGeometry width="50" height="50" relative="1" as="geometry">
            <mxPoint x="400" y="592" as="sourcePoint" />
            <mxPoint x="400" y="502" as="targetPoint" />
            <Array as="points" />
          </mxGeometry>
        </mxCell>
        <mxCell id="8Tat6goZHTP_cjcbLfmh-14" value="&lt;font style=&quot;font-size: 19px;&quot;&gt;Topology Tracker&lt;/font&gt;" style="rounded=0;whiteSpace=wrap;html=1;fillColor=#30FF67;strokeColor=light-dark(#30FF67,#D7817E);gradientColor=none;fillStyle=solid;" vertex="1" parent="1">
          <mxGeometry x="560" y="240" width="120" height="60" as="geometry" />
        </mxCell>
        <mxCell id="8Tat6goZHTP_cjcbLfmh-15" value="" style="shape=flexArrow;endArrow=classic;html=1;rounded=0;exitX=0.25;exitY=1;exitDx=0;exitDy=0;fillColor=#FF0000;entryX=1;entryY=0.5;entryDx=0;entryDy=0;" edge="1" parent="1" target="8Tat6goZHTP_cjcbLfmh-7">
          <mxGeometry width="50" height="50" relative="1" as="geometry">
            <mxPoint x="619.5" y="300" as="sourcePoint" />
            <mxPoint x="619.5" y="390" as="targetPoint" />
            <Array as="points">
              <mxPoint x="620" y="470" />
            </Array>
          </mxGeometry>
        </mxCell>
        <mxCell id="8Tat6goZHTP_cjcbLfmh-16" value="" style="shape=flexArrow;endArrow=classic;html=1;rounded=0;exitX=0.25;exitY=1;exitDx=0;exitDy=0;fillColor=#FF0000;entryX=0.25;entryY=0;entryDx=0;entryDy=0;" edge="1" parent="1">
          <mxGeometry width="50" height="50" relative="1" as="geometry">
            <mxPoint x="619.5" y="150" as="sourcePoint" />
            <mxPoint x="619.5" y="240" as="targetPoint" />
            <Array as="points" />
          </mxGeometry>
        </mxCell>
        <mxCell id="8Tat6goZHTP_cjcbLfmh-17" value="&lt;font style=&quot;font-size: 16px;&quot;&gt;Incoming Packets&lt;/font&gt;" style="edgeLabel;html=1;align=center;verticalAlign=middle;resizable=0;points=[];" vertex="1" connectable="0" parent="8Tat6goZHTP_cjcbLfmh-16">
          <mxGeometry x="-0.4889" y="4" relative="1" as="geometry">
            <mxPoint x="101" y="17" as="offset" />
          </mxGeometry>
        </mxCell>
        <mxCell id="8Tat6goZHTP_cjcbLfmh-18" value="&lt;font style=&quot;font-size: 19px;&quot;&gt;RA-TDMAs+ Handler&lt;br&gt;&lt;/font&gt;" style="rounded=0;whiteSpace=wrap;html=1;fillColor=#30FF67;strokeColor=light-dark(#30FF67,#D7817E);gradientColor=none;fillStyle=solid;" vertex="1" parent="1">
          <mxGeometry x="370" y="170" width="120" height="60" as="geometry" />
        </mxCell>
        <mxCell id="8Tat6goZHTP_cjcbLfmh-19" value="&lt;font style=&quot;font-size: 19px;&quot;&gt;DESYNC Handler&lt;/font&gt;" style="rounded=0;whiteSpace=wrap;html=1;fillColor=#30FF67;strokeColor=light-dark(#30FF67,#D7817E);gradientColor=none;fillStyle=solid;" vertex="1" parent="1">
          <mxGeometry x="370" y="296" width="120" height="60" as="geometry" />
        </mxCell>
        <mxCell id="8Tat6goZHTP_cjcbLfmh-21" value="" style="endArrow=classic;html=1;rounded=0;entryX=1;entryY=0.5;entryDx=0;entryDy=0;exitX=0;exitY=0.5;exitDx=0;exitDy=0;" edge="1" parent="1" source="8Tat6goZHTP_cjcbLfmh-14" target="8Tat6goZHTP_cjcbLfmh-2">
          <mxGeometry width="50" height="50" relative="1" as="geometry">
            <mxPoint x="410" y="440" as="sourcePoint" />
            <mxPoint x="460" y="390" as="targetPoint" />
          </mxGeometry>
        </mxCell>
        <mxCell id="8Tat6goZHTP_cjcbLfmh-22" value="selfConfigure=yes" style="edgeLabel;html=1;align=center;verticalAlign=middle;resizable=0;points=[];" vertex="1" connectable="0" parent="8Tat6goZHTP_cjcbLfmh-21">
          <mxGeometry x="-0.1929" y="-1" relative="1" as="geometry">
            <mxPoint x="-17" y="-9" as="offset" />
          </mxGeometry>
        </mxCell>
        <mxCell id="8Tat6goZHTP_cjcbLfmh-23" value="" style="endArrow=classic;html=1;rounded=0;entryX=0.825;entryY=-0.017;entryDx=0;entryDy=0;exitX=0;exitY=0.5;exitDx=0;exitDy=0;entryPerimeter=0;" edge="1" parent="1" source="8Tat6goZHTP_cjcbLfmh-18" target="8Tat6goZHTP_cjcbLfmh-2">
          <mxGeometry width="50" height="50" relative="1" as="geometry">
            <mxPoint x="565" y="120" as="sourcePoint" />
            <mxPoint x="285" y="120" as="targetPoint" />
            <Array as="points">
              <mxPoint x="260" y="200" />
            </Array>
          </mxGeometry>
        </mxCell>
        <mxCell id="8Tat6goZHTP_cjcbLfmh-24" value="sync=RATDMA" style="edgeLabel;html=1;align=center;verticalAlign=middle;resizable=0;points=[];" vertex="1" connectable="0" parent="8Tat6goZHTP_cjcbLfmh-23">
          <mxGeometry x="-0.1929" y="-1" relative="1" as="geometry">
            <mxPoint y="-9" as="offset" />
          </mxGeometry>
        </mxCell>
        <mxCell id="8Tat6goZHTP_cjcbLfmh-25" value="" style="endArrow=classic;html=1;rounded=0;entryX=0.85;entryY=1.033;entryDx=0;entryDy=0;exitX=0;exitY=0.5;exitDx=0;exitDy=0;entryPerimeter=0;" edge="1" parent="1" source="8Tat6goZHTP_cjcbLfmh-19" target="8Tat6goZHTP_cjcbLfmh-2">
          <mxGeometry width="50" height="50" relative="1" as="geometry">
            <mxPoint x="580" y="290" as="sourcePoint" />
            <mxPoint x="300" y="290" as="targetPoint" />
            <Array as="points">
              <mxPoint x="260" y="326" />
            </Array>
          </mxGeometry>
        </mxCell>
        <mxCell id="8Tat6goZHTP_cjcbLfmh-26" value="sync=DESYNC" style="edgeLabel;html=1;align=center;verticalAlign=middle;resizable=0;points=[];" vertex="1" connectable="0" parent="8Tat6goZHTP_cjcbLfmh-25">
          <mxGeometry x="-0.1929" y="-1" relative="1" as="geometry">
            <mxPoint x="1" y="9" as="offset" />
          </mxGeometry>
        </mxCell>
        <mxCell id="8Tat6goZHTP_cjcbLfmh-27" value="" style="endArrow=classic;html=1;rounded=0;exitX=0.25;exitY=0;exitDx=0;exitDy=0;entryX=1;entryY=0.5;entryDx=0;entryDy=0;" edge="1" parent="1" source="8Tat6goZHTP_cjcbLfmh-14" target="8Tat6goZHTP_cjcbLfmh-18">
          <mxGeometry width="50" height="50" relative="1" as="geometry">
            <mxPoint x="510" y="180" as="sourcePoint" />
            <mxPoint x="560" y="130" as="targetPoint" />
            <Array as="points">
              <mxPoint x="590" y="200" />
            </Array>
          </mxGeometry>
        </mxCell>
        <mxCell id="8Tat6goZHTP_cjcbLfmh-28" value="" style="endArrow=classic;html=1;rounded=0;exitX=0.25;exitY=1;exitDx=0;exitDy=0;entryX=1;entryY=0.5;entryDx=0;entryDy=0;" edge="1" parent="1" source="8Tat6goZHTP_cjcbLfmh-14" target="8Tat6goZHTP_cjcbLfmh-19">
          <mxGeometry width="50" height="50" relative="1" as="geometry">
            <mxPoint x="600" y="250" as="sourcePoint" />
            <mxPoint x="500" y="210" as="targetPoint" />
            <Array as="points">
              <mxPoint x="590" y="326" />
            </Array>
          </mxGeometry>
        </mxCell>
      </root>
    </mxGraphModel>
  </diagram>
</mxfile>
